<svg xmlns="http://www.w3.org/2000/svg" viewBox="0 0 448.7 438.88"><defs><style>.cls-1{fill:#fff;}</style></defs><title>Asset 2</title><g id="Layer_2" data-name="Layer 2"><g id="Layer_1-2" data-name="Layer 1"><path class="cls-1" d="M448.65,222.76a202,202,0,0,1-6.48,56.11c-2.47,9.53-12.28,12.65-18.85,6.26-3.48-3.38-3.9-7.53-2.79-12a201.74,201.74,0,0,0,5.63-55.45q-2.25-67.44-44.52-120A201,201,0,0,0,337.3,56.88c-4.12-2.78-6.92-6.46-6-11.72.83-4.84,3.81-8,8.61-9.39,4-1.13,7.16.65,10.24,2.72A220.34,220.34,0,0,1,399.55,84c27.72,34.77,43.91,74.21,48.27,118.54C448.56,210.07,448.46,217.53,448.65,222.76Z"/><path class="cls-1" d="M225.16,85.09c37.53.82,70.86,14,98.18,41.53,5.65,5.68,5.51,12.95-.12,17.41-5.06,4-10.6,3.36-16-2a118,118,0,0,0-44-27.72,116.65,116.65,0,0,0-131.56,39.37c-2.44,3.2-4.78,6.48-9.22,7.07-4.9.64-8.9-.79-11.55-5.16s-2.18-8.61.73-12.62a139.61,139.61,0,0,1,26.88-28C163.61,95.2,192.35,85.79,225.16,85.09Z"/><path class="cls-1" d="M321.6,250.83c-.31,25.49-1.24,50.94-4.89,76.21-1.1,7.6-6.14,11.62-12.93,10.7-6.43-.87-10-6.67-9.12-14.2,4.19-35.8,5.85-71.72,3.23-107.7-2.24-30.66-28.08-58.07-59.42-64.05a38,38,0,0,1-4.86-1.11c-5.58-1.85-8.42-6.59-7.59-12.48a10.27,10.27,0,0,1,10.85-9c11.23.36,21.67,4.1,31.35,9.35q49.45,26.85,52.55,83.3C321.29,231.52,321.5,241.17,321.6,250.83Z"/><path class="cls-1" d="M229.36.05c15.7-.48,36,2.83,56,8.28,7.4,2,11.15,6.94,10.17,13.2-1.08,6.79-7.34,10.7-14.71,8.79a227.56,227.56,0,0,0-36.25-6.83c-37.31-3.43-73,2.27-106.94,18.41A196.07,196.07,0,0,0,86.28,77c-3.64,3.46-7.66,6-13,4C64.79,77.8,63,68,69.81,61.59a224.1,224.1,0,0,1,42.75-31.91C147.18,10,184.37,0,229.36.05Z"/><path class="cls-1" d="M43.11,208.18A178.58,178.58,0,0,1,78.7,115.57c27.5-36.43,63.8-59.35,108.37-69.14,9.35-2,15.44.85,17.08,8,1.52,6.65-3.06,12.07-12.14,14-34,7.15-62.83,23.54-86.08,49.34C82.2,144.11,68.79,175.1,65.64,210.45c-.71,7.88-5.35,12.76-12.15,12.37S42.85,217.45,43.11,208.18Z"/><path class="cls-1" d="M235.58,251.17c.17,42.06-2.84,83.82-15.89,124.2-6.43,19.93-15.24,38.68-27.83,55.59-2.62,3.51-5.28,4.48-9.32,3.35-4.81-1.33-9.71-2.34-14.57-3.47-2.66-.61-4.06-1.55-1.65-4.25,27-30.3,37-67.5,42.82-106.33,4.52-29.93,4.54-60.05,4-90.19,0-1.84-.13-3.67-.05-5.5.29-6.33,5.09-11.2,11.07-11.31a11.2,11.2,0,0,1,11.35,11C235.76,233.2,235.58,242.18,235.58,251.17Z"/><path class="cls-1" d="M363.6,249.59c.2,39-2.06,77.87-9.87,116.22-1.53,7.52-7,11.69-13.29,10.37-6.77-1.41-10.14-7.16-8.62-14.89C341.16,313.93,342.35,266,340.9,218a106.93,106.93,0,0,0-3.59-23.16c-2-7.72,1.34-13.94,7.8-15.4,6.75-1.51,12.1,2.24,14.06,10.1a136.76,136.76,0,0,1,4.43,32.58C363.63,231.28,363.6,240.44,363.6,249.59Z"/><path class="cls-1" d="M101.34,176.94c7.93-.07,13.06,6.51,10.82,14.72a130.62,130.62,0,0,0-4.41,43c1.17,18.33.28,36.6-1.23,54.83-1.57,19.11-4.7,38-12.12,55.87-3.5,8.44-10.09,14.41-16.18,20.7-3.87,4-10.09,3.46-14.11-.13a11,11,0,0,1-2.17-14.46,10.88,10.88,0,0,1,1.8-2.38C75.43,338.8,78.4,324.6,81.1,310.29c4.71-25,4.65-50.33,4-75.63-.37-14.72.42-29.28,4-43.6a43.49,43.49,0,0,1,2.15-7.16C93.18,179.63,96.45,177,101.34,176.94Z"/><path class="cls-1" d="M278.64,240.38c0,8.3.12,14.47,0,20.63-.18,7.19-4.87,11.9-11.46,11.82-6.22-.07-10.84-4.82-11-11.85-.21-11.5,0-23-.2-34.5-.27-15.15-7.89-26.59-20.59-31.33-21.38-8-42.79,7.69-42.61,31.17,0,2.65.44,5.37-.92,7.83-2.38,4.29-6,6.74-11,6.43a10.73,10.73,0,0,1-9.79-8.64c-2.21-12.15.48-23.53,6.4-34.16a53.77,53.77,0,0,1,57-26.19c23.22,4.71,40.31,22.95,43.3,46C278.83,225.87,278.36,234.19,278.64,240.38Z"/><path class="cls-1" d="M0,224.2c-.09-45.79,12.88-87.59,38.28-125.61,2.86-4.27,6.21-7.57,11.74-7,8.68.95,12.88,9.89,8.05,17.64-5.3,8.49-10.6,16.93-15,25.92C24.63,172.6,18.81,212,24.4,253.2c.68,4.94,1.65,9.84,2.47,14.76,1.12,6.63-2.43,12.14-8.74,13.56-5.73,1.3-11.48-2.28-13-8.79a184.64,184.64,0,0,1-5-38.54C0,230.86,0,227.53,0,224.2Z"/><path class="cls-1" d="M395.77,165.36c.08,5.85-3.16,10.15-8.29,11.43a10.74,10.74,0,0,1-12.79-6.22c-3-6.67-5.49-13.59-9-20C342,107.31,306.33,79.9,258.27,68.78c-8.34-1.93-12.26-5.19-12.65-11.24-.48-7.23,5.74-12.69,13.45-11.46A149.47,149.47,0,0,1,297.16,57.8c45.67,20.66,78.13,54.1,96.77,100.76a49.32,49.32,0,0,1,1.61,4.71A9.65,9.65,0,0,1,395.77,165.36Z"/><path class="cls-1" d="M126.21,294.49c3.2-25.26,1.18-51.26,1.93-77.2,1-35,29-72,62.42-83.17,6.53-2.18,12.58.41,14.79,6.33,2.29,6.16-.47,11.92-7.3,14.75-23.73,9.84-39.11,27-45.66,51.93a69.2,69.2,0,0,0-1.91,18.31c.16,20.63.77,41.28-.87,61.89-.25,3.15-.62,6.29-1,9.43-.73,6.7-5.9,11.36-12,10.83S126.1,301.85,126.21,294.49Z"/><path class="cls-1" d="M372,378.21c1.59-9.13,3-17.1,4.36-25.08a627.67,627.67,0,0,0,6.91-65.49c1.11-19.32.8-38.63.72-57.94,0-7-.74-14-.9-20.95s4.21-12,10.33-12.41c6.4-.42,11.59,4.18,12.06,11.39a704.32,704.32,0,0,1,.41,76.89c-.88,19.47-2.45,38.85-5.19,58.15a11.21,11.21,0,0,1-1.74,5.12,216.31,216.31,0,0,1-24.17,28.59A20,20,0,0,1,372,378.21Z"/><path class="cls-1" d="M224.33,438.67c-3.75-.41-8.84,1.47-10.53-1.53s2.67-6.23,4.45-9.27c16-27.25,25.1-56.87,30.8-87.71,2.2-12,3.59-24,4.95-36.1.83-7.33,5.51-11.45,12.28-10.88,6.43.55,10.83,6.05,10.13,13-3.11,30.91-8.63,61.31-19.11,90.67-4.21,11.79-9.56,23.06-15,34.31-2.32,4.77-5.26,7.36-10.6,7.2C229.17,438.3,226.67,438.57,224.33,438.67Z"/><path class="cls-1" d="M191.64,297.11c-3.32,33-9,66.72-26.5,97.26-5.52,9.62-13.1,17.61-20.23,26-1.14,1.34-2.31,1.87-3.9,1.14q-7.71-3.57-15.37-7.22c-2-.95-2.07-2.46-.89-4.08,2.25-3.1,4.23-6.48,6.93-9.14,15-14.79,22.75-33.44,28.34-53.19a275.33,275.33,0,0,0,9.13-53.57c.62-7.72,5.2-12.34,11.89-12s10.71,5.12,10.6,13.06Z"/><path class="cls-1" d="M65.45,262.85c-.83,18.42-2.14,36.77-6.32,54.85-1.92,8.3-7,14.13-12.26,20.11-1.44,1.63-2.79,1.8-3.93-.18-3.08-5.32-6.1-10.67-9.12-16a2.75,2.75,0,0,1,0-2.85c6.73-11.68,6.59-24.88,8-37.65,1-8.4.78-16.92,1.13-25.39.25-6.08,4.34-10.12,10.5-10.43,6.37-.32,11.25,3.51,11.87,9.59A78.62,78.62,0,0,1,65.45,262.85Z"/><path class="cls-1" d="M122.53,347.25c8.67.16,13.78,8.07,10.62,15.76a65.13,65.13,0,0,1-12.61,20.22c-4.57,4.85-9.12,9.74-12.46,15.53-1.87,3.23-3.75,3.09-6.35,1q-5.28-4.19-10.78-8.07c-2.55-1.81-2.89-3.67-1.09-6.28a93.85,93.85,0,0,1,10.45-13.33,59.51,59.51,0,0,0,12.1-17.56C114.54,349.86,118.16,347.38,122.53,347.25Z"/><path class="cls-1" d="M303.68,390.86a32.43,32.43,0,0,1-.83,3.92c-3,9.84-6.39,19.57-10.22,29.14-.91,2.27-2.08,4.06-4.6,4.8-6.85,2-13.74,3.87-20.76,5.24-2.93.57-3.86-.09-2.44-3,7.14-14.49,12.42-29.7,17.36-45.05a11,11,0,0,1,12.54-7.52C300.25,379.46,303.78,384,303.68,390.86Z"/><path class="cls-1" d="M331.69,395.31a12.23,12.23,0,0,1,7.2,2.42c3.78,2.79,3.79,5-.24,7.43-5.79,3.53-11.73,6.82-17.63,10.18-.84.48-1.88,1.1-2.77.44s-.36-1.87-.08-2.76c1.18-3.61,2.27-7.28,3.74-10.78A10.94,10.94,0,0,1,331.69,395.31Z"/></g></g></svg>