<svg xmlns="http://www.w3.org/2000/svg" viewBox="0 0 800 345.38"><defs><style>.cls-1{fill:#fff;}</style></defs><title>Asset 2</title><g id="Layer_2" data-name="Layer 2"><g id="Layer_1-2" data-name="Layer 1"><path class="cls-1" d="M151.65,108.16c19.51-4.18,29.27-13.1,33.73-31.22l2-8.08c8.92-37.08-10.31-55.48-52.69-55.48H61.89L45.72,20.63,41,39.86l10.87,4.46L18.12,179,4.74,185.1,0,204.34l15.89,7.24H99.24c39.58,0,62.16-11.7,71.36-47.94L174,150.53C178.69,132.13,170.6,113.74,151.65,108.16ZM119,145.24l-3.62,14.49c-3.9,15.61-9.76,18.4-25.65,18.4H72.48l13.38-53.24h15.89C118.2,124.89,123.21,128.51,119,145.24Zm14.78-79.73-3.07,11.71c-3.62,13.94-7.53,16.45-23.14,16.45H93.39l12-46.84H118.2C133,46.83,137.71,50.18,133.81,65.51Z"/><path class="cls-1" d="M316.94,112.62c0-3.9-5.29-2.23-5.29-7.8,0-6.69,5.57-11.15,5.57-21.19,0-15.33-9.2-25.65-27-25.65S257.57,66.35,247,83.35l-3.9-23.14h-29l-17.84,5.86-5.3,21.74c9.76,4.46,8.36,16.73,5.86,27.32l-19.24,77.22,12.82,19.23h31.23l16.44-5.85,4.74-19.24-12.26-6.69,14.21-57.42c5.86-22.86,15.61-33.73,23.42-33.73,2.51,0,3.9.83,3.9,2.79,0,3.9-8.08,4.46-8.08,18.67,0,12.27,9.75,20.63,24.25,20.63C307.19,130.74,316.94,120.43,316.94,112.62Z"/><polygon class="cls-1" points="393.59 60.21 374.08 60.21 327.81 68.58 323.35 86.98 335.33 94.5 310.8 192.35 323.62 211.58 354.84 211.58 371.57 205.73 376.31 186.5 363.76 179.8 393.59 60.21"/><path class="cls-1" d="M369.06,49.06h3.35c13.1,0,22.86-6.13,25.64-20.35l.56-2.78C402.51,7,391.64,0,377.7,0h-3.34C361,0,351.5,4.74,348.43,20.35l-.55,2.79C344,42.93,356,49.06,369.06,49.06Z"/><path class="cls-1" d="M437.35,214.37c31.5,0,49.9-14.22,58-32.06,3.62-7.8-2.51-15.33-10-8.92-7,6.14-15.89,11.43-32.06,11.43-22,0-24-11.43-19.51-29l10.87-43.49c4.18-17,7.53-22.86,23.14-22.86,13.38,0,17.84,10,18.4,24.26h19.51l13.1-53.53H501.19c-2.51,5.58-4.46,6.69-8.36,6.69-4.74,0-10.32-7.8-32.06-7.8-38.75,0-59.66,15.33-70.25,58.54l-6.13,24.81C374.07,183.71,389.41,214.37,437.35,214.37Z"/><path class="cls-1" d="M709.13,39.59c0-17.85-8.92-30.11-28.15-30.11-14.78,0-27.6,10.59-27.6,25.65,0,18.39,13.38,18.39,13.38,28.43,0,6-4.12,11.32-13.31,17.2l3-12.18-11.7-8.37H618c-10.59,19-29.54,40.7-51.29,58l23.42-94.51L581.19,8.36H549.41L531,15.61l-5.3,21.74,9.76,6.7-37.08,148.3,12.83,19.23h31.22l15-5.85,4.74-19.24-10.87-6.69L555.82,162a154.54,154.54,0,0,0,13.38-8.64l14.22,44.05,14.21,14.21h23.7l15-5.85,4.74-19.24-11.71-6.69-19.79-58.54a174,174,0,0,0,23.14-25.92l7.35-2.92c-.35,4.16,3.26,7.86,8.81,6.82C684,93.11,709.13,65,709.13,39.59Z"/><path class="cls-1" d="M751.49,115.13c-19.23-5.85-21.74-9.48-19.23-18.95,2-7.81,6.41-10,16.45-10,11.7,0,14.49,2.23,14.49,5,0,1.67-2.79,4.46-2.79,9.75,0,8.92,8.92,13.38,18.12,13.38,14.22,0,21.47-11.15,21.47-22.58,0-18.12-12.55-32.61-49.34-32.61-36,0-53,10.31-59.94,38.75-9.47,38.75,7.25,51.85,38.47,60.77,16.17,4.74,20.07,7.25,18.12,15.33-1.67,7.25-4.74,9.48-21.18,9.48-18.4,0-25.65-9.48-29.55-21.74H679l-12.27,49.89h16.17c3.06-6.69,5-7.8,8.08-7.8,4.46,0,9.76,8.92,37.36,8.92,35.68,0,55.75-8.36,63-38.75C800.28,136.6,784.11,124.89,751.49,115.13Z"/><path class="cls-1" d="M368.35,291c0-16.28-10.15-26-27.09-26-17.39,0-26.87,11.59-26.87,27.53v41.14l-5,3.34v5.35l6,3h12.16l5.9-2.78v-5.35l-3.9-2.9V316.62h22.63v18.17l-5,2.23v4.68l6,3.68h13.15l6.91-3.23v-4.9l-4.9-2.9Zm-16.17,15H329.55V289.42c0-8.7,2.35-12.82,11.71-12.82,8.92,0,10.92,3.34,10.92,14Z"/><path class="cls-1" d="M410.05,266.12H390.32l-8.14,3v6.36l5.35,3.45V334l-5,4v4.68l4.79,2.67h12.93l6.69-3.12v-3.68l-6.35-4.23V315.28H411c16.72,0,29-5.35,29-20.4v-8.8C439.93,272.59,430.23,266.12,410.05,266.12Zm13.16,26.53c0,7.7-2.34,12-10.15,12H400.58V275.6h13c8,0,9.59,4.23,9.59,11.7Z"/><path class="cls-1" d="M476.39,266.12H456.66l-8.14,3v6.36l5.35,3.45V334l-5,4v4.68l4.79,2.67h12.93l6.69-3.12v-3.68l-6.35-4.23V315.28h10.37c16.72,0,29-5.35,29-20.4v-8.8C506.27,272.59,496.57,266.12,476.39,266.12Zm13.16,26.53c0,7.7-2.34,12-10.15,12H466.92V275.6h13c8,0,9.59,4.23,9.59,11.7Z"/></g></g></svg>